<svg xmlns="http://www.w3.org/2000/svg" class="leaflet-zoom-animated" width="1461" height="976" viewBox="-29 -21 1461 976" style="transform: translate3d(-29px, -21px, 0px);"><g><path stroke-linejoin="round" stroke-linecap="round" fill-rule="evenodd" stroke="#333" stroke-opacity="1" stroke-width="1" fill="transparent" fill-opacity="0.2" class="leaflet-clickable" d="M296 249L349 242L371 242L386 239L403 229L423 211L430 208L479 205L496 206L512 199L556 184L569 182L573 184L576 188L575 198L557 215L557 233L559 240L568 252L568 261L562 264L554 265L545 262L535 263L525 269L517 279L516 284L522 295L531 297L543 286L549 284L574 298L583 297L621 263L651 265L653 263L662 239L669 229L696 204L725 186L753 161L795 193L815 182L813 178L817 176L820 178L824 173L820 167L835 158L838 162L838 165L843 163L841 160L842 159L845 164L856 164L861 160L859 157L860 156L873 152L877 145L878 146L894 125L906 112L917 103L967 76L1107 364L1098 367L1077 380L1060 388L1053 393L1047 400L1041 414L1042 433L1038 447L1024 464L958 505L838 542L809 554L799 560L793 570L788 592L789 631L784 656L772 686L767 690L748 696L740 701L731 710L709 744L695 757L678 762L663 770L656 769L645 760L621 751L598 734L562 696L532 655L488 590L477 579L459 568L442 554L425 530L420 512L417 475L408 459L322 378L308 357L303 340z"/></g><g><path stroke-linejoin="round" stroke-linecap="round" fill-rule="evenodd" stroke="#333" stroke-opacity="1" stroke-width="1" fill="transparent" fill-opacity="0.2" class="leaflet-clickable" d="M408 859L406 858L398 842L393 807L395 777L401 766L411 766L425 785L434 787L440 782L440 771L443 765L449 760L458 759L466 765L468 775L473 784L480 791L486 791L508 769L518 765L529 765L537 771L538 780L533 793L517 808L504 808L503 819L500 822L492 824L483 824L479 808L475 807L466 809L463 806L459 806L447 810L414 843L411 850L410 858z"/></g><g><path stroke-linejoin="round" stroke-linecap="round" fill-rule="evenodd" stroke="#333" stroke-opacity="1" stroke-width="1" fill="transparent" fill-opacity="0.2" class="leaflet-clickable" d="M454 588L468 586L472 589L472 592L468 597L466 596L463 598L466 600L464 601L471 610L468 616L461 615L455 609L451 597L452 590z"/></g><g><path stroke-linejoin="round" stroke-linecap="round" fill-rule="evenodd" stroke="#333" stroke-opacity="1" stroke-width="1" fill="transparent" fill-opacity="0.2" class="leaflet-clickable" d="M397 665L393 658L393 651L399 637L401 635L406 634L411 625L417 625L420 622L423 623L428 628L430 638L439 641L440 644L435 664L419 675L401 681L394 696L378 712L371 716L369 712L370 698L376 684L380 680L389 677L398 666z"/></g><g><path stroke-linejoin="round" stroke-linecap="round" fill-rule="evenodd" stroke="#333" stroke-opacity="1" stroke-width="1" fill="transparent" fill-opacity="0.2" class="leaflet-clickable" d="M392 586L396 593L396 596L394 597L391 595L388 588L383 586L383 584L385 583L391 585z"/></g><g><path stroke-linejoin="round" stroke-linecap="round" fill-rule="evenodd" stroke="#333" stroke-opacity="1" stroke-width="1" fill="transparent" fill-opacity="0.2" class="leaflet-clickable" d="M356 728L359 724L364 723L359 732L356 731z"/></g></svg>