<?xml version="1.0" standalone="no"?><!DOCTYPE svg PUBLIC "-//W3C//DTD SVG 1.1//EN" "http://www.w3.org/Graphics/SVG/1.1/DTD/svg11.dtd"><svg t="1524203232255" class="icon" style="" viewBox="0 0 1024 1024" version="1.1" xmlns="http://www.w3.org/2000/svg" p-id="1919" xmlns:xlink="http://www.w3.org/1999/xlink" width="64" height="64"><defs><style type="text/css"></style></defs><path d="M530.640034 341.474208 485.622748 341.474208 485.622748 561.237401 485.821269 561.237401 485.622748 561.522903 601.923544 637.488039 626.540198 599.813998 530.640034 537.169239Z" p-id="1920" fill="#999999"></path><path d="M512.000512 185.631838c-179.955558 0-326.369186 146.413628-326.369186 326.369186 0 179.955558 146.413628 326.370209 326.369186 326.370209s326.369186-146.413628 326.369186-326.370209C838.368674 332.044442 691.95607 185.631838 512.000512 185.631838zM512.000512 793.352923c-155.13936 0-281.352923-126.21254-281.352923-281.352923 0-155.138336 126.21254-281.351899 281.352923-281.351899S793.352411 356.861664 793.352411 512C793.352411 667.141406 667.139871 793.352923 512.000512 793.352923z" p-id="1921" fill="#999999"></path></svg>